{
    "asset" : {
        "generator" : "Khronos glTF Blender I/O v1.6.16",
        "version" : "2.0"
    },
    "scene" : 0,
    "scenes" : [
        {
            "name" : "Scene",
            "nodes" : [
                0
            ]
        }
    ],
    "nodes" : [
        {
            "mesh" : 0,
            "name" : "Cube.001",
            "rotation" : [
                0.7053559422492981,
                0.04973048344254494,
                -0.04973043128848076,
                0.7053557634353638
            ],
            "scale" : [
                0.5,
                0.5,
                0.5
            ]
        }
    ],
    "materials" : [
        {
            "doubleSided" : true,
            "name" : "Material.019",
            "pbrMetallicRoughness" : {
                "baseColorFactor" : [
                    0.7247070074081421,
                    0.800000011920929,
                    0.6834700107574463,
                    1
                ],
                "metallicFactor" : 0,
                "roughnessFactor" : 0.4000000059604645
            }
        },
        {
            "doubleSided" : true,
            "name" : "Material.020",
            "pbrMetallicRoughness" : {
                "baseColorFactor" : [
                    0.7991030216217041,
                    0.3139890134334564,
                    0.002732000080868602,
                    1
                ],
                "metallicFactor" : 0,
                "roughnessFactor" : 0.5
            }
        }
    ],
    "meshes" : [
        {
            "name" : "Cube.006",
            "primitives" : [
                {
                    "attributes" : {
                        "POSITION" : 0,
                        "NORMAL" : 1,
                        "TEXCOORD_0" : 2
                    },
                    "indices" : 3,
                    "material" : 0
                },
                {
                    "attributes" : {
                        "POSITION" : 4,
                        "NORMAL" : 5,
                        "TEXCOORD_0" : 6
                    },
                    "indices" : 7,
                    "material" : 1
                }
            ]
        }
    ],
    "accessors" : [
        {
            "bufferView" : 0,
            "componentType" : 5126,
            "count" : 1424,
            "max" : [
                0.8567309975624084,
                2.7022440433502197,
                0
            ],
            "min" : [
                -2.3752169609069824,
                -3.7107560634613037,
                -7.746471881866455
            ],
            "type" : "VEC3"
        },
        {
            "bufferView" : 1,
            "componentType" : 5126,
            "count" : 1424,
            "type" : "VEC3"
        },
        {
            "bufferView" : 2,
            "componentType" : 5126,
            "count" : 1424,
            "type" : "VEC2"
        },
        {
            "bufferView" : 3,
            "componentType" : 5123,
            "count" : 1566,
            "type" : "SCALAR"
        },
        {
            "bufferView" : 4,
            "componentType" : 5126,
            "count" : 480,
            "max" : [
                0.8493090271949768,
                5.115939617156982,
                -5.3389434814453125
            ],
            "min" : [
                -4.084445953369141,
                -5.112970352172852,
                -10.302494049072266
            ],
            "type" : "VEC3"
        },
        {
            "bufferView" : 5,
            "componentType" : 5126,
            "count" : 480,
            "type" : "VEC3"
        },
        {
            "bufferView" : 6,
            "componentType" : 5126,
            "count" : 480,
            "type" : "VEC2"
        },
        {
            "bufferView" : 7,
            "componentType" : 5123,
            "count" : 480,
            "type" : "SCALAR"
        }
    ],
    "bufferViews" : [
        {
            "buffer" : 0,
            "byteLength" : 17088,
            "byteOffset" : 0
        },
        {
            "buffer" : 0,
            "byteLength" : 17088,
            "byteOffset" : 17088
        },
        {
            "buffer" : 0,
            "byteLength" : 11392,
            "byteOffset" : 34176
        },
        {
            "buffer" : 0,
            "byteLength" : 3132,
            "byteOffset" : 45568
        },
        {
            "buffer" : 0,
            "byteLength" : 5760,
            "byteOffset" : 48700
        },
        {
            "buffer" : 0,
            "byteLength" : 5760,
            "byteOffset" : 54460
        },
        {
            "buffer" : 0,
            "byteLength" : 3840,
            "byteOffset" : 60220
        },
        {
            "buffer" : 0,
            "byteLength" : 960,
            "byteOffset" : 64060
        }
    ],
    "buffers" : [
        {
            "byteLength" : 65020,
            "uri" : "data:application/octet-stream;base64,"
        }
    ]
}
