{
    "asset" : {
        "generator" : "Khronos glTF Blender I/O v1.6.16",
        "version" : "2.0"
    },
    "scene" : 0,
    "scenes" : [
        {
            "name" : "Scene",
            "nodes" : [
                0
            ]
        }
    ],
    "nodes" : [
        {
            "mesh" : 0,
            "name" : "Wheelbarrow",
            "translation" : [
                0.658822238445282,
                0.002559725195169449,
                0
            ]
        }
    ],
    "materials" : [
        {
            "doubleSided" : true,
            "name" : "Green",
            "pbrMetallicRoughness" : {
                "baseColorFactor" : [
                    0.08859341591596603,
                    0.22283916175365448,
                    0.05976581573486328,
                    1
                ],
                "metallicFactor" : 0,
                "roughnessFactor" : 0.5
            }
        },
        {
            "doubleSided" : true,
            "name" : "Handle",
            "pbrMetallicRoughness" : {
                "baseColorFactor" : [
                    0.6279959678649902,
                    0.6279959678649902,
                    0.6279959678649902,
                    1
                ],
                "metallicFactor" : 0,
                "roughnessFactor" : 0.5
            }
        },
        {
            "doubleSided" : true,
            "name" : "Black",
            "pbrMetallicRoughness" : {
                "baseColorFactor" : [
                    0,
                    0,
                    0,
                    1
                ],
                "metallicFactor" : 0,
                "roughnessFactor" : 0.5
            }
        },
        {
            "doubleSided" : true,
            "name" : "steel",
            "pbrMetallicRoughness" : {
                "baseColorFactor" : [
                    0.6509150266647339,
                    0.6509150266647339,
                    0.6509150266647339,
                    1
                ],
                "metallicFactor" : 0,
                "roughnessFactor" : 0.5
            }
        },
        {
            "doubleSided" : true,
            "name" : "rubber",
            "pbrMetallicRoughness" : {
                "baseColorFactor" : [
                    0.1197083443403244,
                    0.11852532625198364,
                    0.11852532625198364,
                    1
                ],
                "metallicFactor" : 0,
                "roughnessFactor" : 0.5
            }
        }
    ],
    "meshes" : [
        {
            "name" : "Wheelbarrow",
            "primitives" : [
                {
                    "attributes" : {
                        "POSITION" : 0,
                        "NORMAL" : 1
                    },
                    "indices" : 2,
                    "material" : 0
                },
                {
                    "attributes" : {
                        "POSITION" : 3,
                        "NORMAL" : 4
                    },
                    "indices" : 5,
                    "material" : 1
                },
                {
                    "attributes" : {
                        "POSITION" : 6,
                        "NORMAL" : 7
                    },
                    "indices" : 8,
                    "material" : 2
                },
                {
                    "attributes" : {
                        "POSITION" : 9,
                        "NORMAL" : 10
                    },
                    "indices" : 11,
                    "material" : 3
                },
                {
                    "attributes" : {
                        "POSITION" : 12,
                        "NORMAL" : 13
                    },
                    "indices" : 14,
                    "material" : 4
                }
            ]
        }
    ],
    "accessors" : [
        {
            "bufferView" : 0,
            "componentType" : 5126,
            "count" : 72,
            "max" : [
                -1.323960781097412,
                0.6301944255828857,
                0.2830280661582947
            ],
            "min" : [
                -1.7428133487701416,
                0.21134185791015625,
                0.04634326696395874
            ],
            "type" : "VEC3"
        },
        {
            "bufferView" : 1,
            "componentType" : 5126,
            "count" : 72,
            "type" : "VEC3"
        },
        {
            "bufferView" : 2,
            "componentType" : 5123,
            "count" : 360,
            "type" : "SCALAR"
        },
        {
            "bufferView" : 3,
            "componentType" : 5126,
            "count" : 146,
            "max" : [
                2.8421123027801514,
                1.3401654958724976,
                0.8521853089332581
            ],
            "min" : [
                2.413742780685425,
                1.1196013689041138,
                -0.8521853089332581
            ],
            "type" : "VEC3"
        },
        {
            "bufferView" : 4,
            "componentType" : 5126,
            "count" : 146,
            "type" : "VEC3"
        },
        {
            "bufferView" : 5,
            "componentType" : 5123,
            "count" : 816,
            "type" : "SCALAR"
        },
        {
            "bufferView" : 6,
            "componentType" : 5126,
            "count" : 600,
            "max" : [
                2.414538621902466,
                1.2869263887405396,
                0.7968907952308655
            ],
            "min" : [
                -2.154567241668701,
                0.0009074024856090546,
                -0.7968907952308655
            ],
            "type" : "VEC3"
        },
        {
            "bufferView" : 7,
            "componentType" : 5126,
            "count" : 600,
            "type" : "VEC3"
        },
        {
            "bufferView" : 8,
            "componentType" : 5123,
            "count" : 3444,
            "type" : "SCALAR"
        },
        {
            "bufferView" : 9,
            "componentType" : 5126,
            "count" : 192,
            "max" : [
                1.2019109725952148,
                1.1400697231292725,
                1.0067639350891113
            ],
            "min" : [
                -1.6911776065826416,
                0.4773593842983246,
                -1.0071191787719727
            ],
            "type" : "VEC3"
        },
        {
            "bufferView" : 10,
            "componentType" : 5126,
            "count" : 192,
            "type" : "VEC3"
        },
        {
            "bufferView" : 11,
            "componentType" : 5123,
            "count" : 1140,
            "type" : "SCALAR"
        },
        {
            "bufferView" : 12,
            "componentType" : 5126,
            "count" : 96,
            "max" : [
                -1.083665132522583,
                0.8704900741577148,
                0.13868378102779388
            ],
            "min" : [
                -1.9831087589263916,
                -0.005444461479783058,
                -0.13868378102779388
            ],
            "type" : "VEC3"
        },
        {
            "bufferView" : 13,
            "componentType" : 5126,
            "count" : 96,
            "type" : "VEC3"
        },
        {
            "bufferView" : 14,
            "componentType" : 5123,
            "count" : 504,
            "type" : "SCALAR"
        }
    ],
    "bufferViews" : [
        {
            "buffer" : 0,
            "byteLength" : 864,
            "byteOffset" : 0
        },
        {
            "buffer" : 0,
            "byteLength" : 864,
            "byteOffset" : 864
        },
        {
            "buffer" : 0,
            "byteLength" : 720,
            "byteOffset" : 1728
        },
        {
            "buffer" : 0,
            "byteLength" : 1752,
            "byteOffset" : 2448
        },
        {
            "buffer" : 0,
            "byteLength" : 1752,
            "byteOffset" : 4200
        },
        {
            "buffer" : 0,
            "byteLength" : 1632,
            "byteOffset" : 5952
        },
        {
            "buffer" : 0,
            "byteLength" : 7200,
            "byteOffset" : 7584
        },
        {
            "buffer" : 0,
            "byteLength" : 7200,
            "byteOffset" : 14784
        },
        {
            "buffer" : 0,
            "byteLength" : 6888,
            "byteOffset" : 21984
        },
        {
            "buffer" : 0,
            "byteLength" : 2304,
            "byteOffset" : 28872
        },
        {
            "buffer" : 0,
            "byteLength" : 2304,
            "byteOffset" : 31176
        },
        {
            "buffer" : 0,
            "byteLength" : 2280,
            "byteOffset" : 33480
        },
        {
            "buffer" : 0,
            "byteLength" : 1152,
            "byteOffset" : 35760
        },
        {
            "buffer" : 0,
            "byteLength" : 1152,
            "byteOffset" : 36912
        },
        {
            "buffer" : 0,
            "byteLength" : 1008,
            "byteOffset" : 38064
        }
    ],
    "buffers" : [
        {
            "byteLength" : 39072,
            "uri" : "data:application/octet-stream;base64,"
        }
    ]
}
