{
    "asset" : {
        "generator" : "Khronos glTF Blender I/O v1.6.16",
        "version" : "2.0"
    },
    "scene" : 0,
    "scenes" : [
        {
            "name" : "Scene",
            "nodes" : [
                0
            ]
        }
    ],
    "nodes" : [
        {
            "mesh" : 0,
            "name" : "Cube.013_Material_0",
            "rotation" : [
                -0.330350399017334,
                0,
                0,
                0.9438583254814148
            ],
            "translation" : [
                0,
                3.81000018119812,
                0
            ]
        }
    ],
    "materials" : [
        {
            "doubleSided" : true,
            "name" : "Material.007",
            "pbrMetallicRoughness" : {
                "baseColorTexture" : {
                    "index" : 0
                },
                "metallicFactor" : 0.5870807766914368
            }
        }
    ],
    "meshes" : [
        {
            "name" : "Cube.013_Material_0",
            "primitives" : [
                {
                    "attributes" : {
                        "POSITION" : 0,
                        "NORMAL" : 1,
                        "TEXCOORD_0" : 2
                    },
                    "indices" : 3,
                    "material" : 0
                }
            ]
        }
    ],
    "textures" : [
        {
            "sampler" : 0,
            "source" : 0
        }
    ],
    "images" : [
        {
            "bufferView" : 4,
            "mimeType" : "image/png",
            "name" : "Material_baseColor"
        }
    ],
    "accessors" : [
        {
            "bufferView" : 0,
            "componentType" : 5126,
            "count" : 562,
            "max" : [
                3.6059088706970215,
                1.2199374437332153,
                1.1924068927764893
            ],
            "min" : [
                -3.586350202560425,
                -4.19456148147583,
                -4.122040748596191
            ],
            "type" : "VEC3"
        },
        {
            "bufferView" : 1,
            "componentType" : 5126,
            "count" : 562,
            "type" : "VEC3"
        },
        {
            "bufferView" : 2,
            "componentType" : 5126,
            "count" : 562,
            "type" : "VEC2"
        },
        {
            "bufferView" : 3,
            "componentType" : 5123,
            "count" : 660,
            "type" : "SCALAR"
        }
    ],
    "bufferViews" : [
        {
            "buffer" : 0,
            "byteLength" : 6744,
            "byteOffset" : 0
        },
        {
            "buffer" : 0,
            "byteLength" : 6744,
            "byteOffset" : 6744
        },
        {
            "buffer" : 0,
            "byteLength" : 4496,
            "byteOffset" : 13488
        },
        {
            "buffer" : 0,
            "byteLength" : 1320,
            "byteOffset" : 17984
        },
        {
            "buffer" : 0,
            "byteLength" : 513377,
            "byteOffset" : 19304
        }
    ],
    "samplers" : [
        {
            "magFilter" : 9729,
            "minFilter" : 9987
        }
    ],
    "buffers" : [
        {
            "byteLength" : 532684,
            "uri" : "data:application/octet-stream;base64,"
        }
    ]
}
