{
    "asset" : {
        "generator" : "Khronos glTF Blender I/O v1.6.16",
        "version" : "2.0"
    },
    "scene" : 0,
    "scenes" : [
        {
            "name" : "Scene",
            "nodes" : [
                0
            ]
        }
    ],
    "nodes" : [
        {
            "mesh" : 0,
            "name" : "Mesh_10",
            "scale" : [
                2,
                2,
                2
            ],
            "translation" : [
                0,
                2,
                0
            ]
        }
    ],
    "materials" : [
        {
            "alphaCutoff" : 0.5,
            "alphaMode" : "MASK",
            "doubleSided" : true,
            "name" : "None_3",
            "pbrMetallicRoughness" : {
                "baseColorFactor" : [
                    0.4268292784690857,
                    0.4268292784690857,
                    0.4268292784690857,
                    1
                ],
                "baseColorTexture" : {
                    "index" : 0
                },
                "metallicFactor" : 0.5
            }
        }
    ],
    "meshes" : [
        {
            "name" : "Mesh_10",
            "primitives" : [
                {
                    "attributes" : {
                        "POSITION" : 0,
                        "NORMAL" : 1,
                        "TEXCOORD_0" : 2
                    },
                    "indices" : 3,
                    "material" : 0
                }
            ]
        }
    ],
    "textures" : [
        {
            "sampler" : 0,
            "source" : 0
        }
    ],
    "images" : [
        {
            "bufferView" : 4,
            "mimeType" : "image/png",
            "name" : "None_3_baseColor"
        }
    ],
    "accessors" : [
        {
            "bufferView" : 0,
            "componentType" : 5126,
            "count" : 1702,
            "max" : [
                0.8300510048866272,
                1.34524405002594,
                0.578245997428894
            ],
            "min" : [
                -0.7951880097389221,
                -1.0164819955825806,
                -0.7833840250968933
            ],
            "type" : "VEC3"
        },
        {
            "bufferView" : 1,
            "componentType" : 5126,
            "count" : 1702,
            "type" : "VEC3"
        },
        {
            "bufferView" : 2,
            "componentType" : 5126,
            "count" : 1702,
            "type" : "VEC2"
        },
        {
            "bufferView" : 3,
            "componentType" : 5123,
            "count" : 1752,
            "type" : "SCALAR"
        }
    ],
    "bufferViews" : [
        {
            "buffer" : 0,
            "byteLength" : 20424,
            "byteOffset" : 0
        },
        {
            "buffer" : 0,
            "byteLength" : 20424,
            "byteOffset" : 20424
        },
        {
            "buffer" : 0,
            "byteLength" : 13616,
            "byteOffset" : 40848
        },
        {
            "buffer" : 0,
            "byteLength" : 3504,
            "byteOffset" : 54464
        },
        {
            "buffer" : 0,
            "byteLength" : 171360,
            "byteOffset" : 57968
        }
    ],
    "samplers" : [
        {
            "magFilter" : 9729,
            "minFilter" : 9987
        }
    ],
    "buffers" : [
        {
            "byteLength" : 229328,
            "uri" : "data:application/octet-stream;base64,"
        }
    ]
}
