{
    "asset" : {
        "generator" : "Khronos glTF Blender I/O v1.6.16",
        "version" : "2.0"
    },
    "scene" : 0,
    "scenes" : [
        {
            "name" : "Scene",
            "nodes" : [
                0
            ]
        }
    ],
    "nodes" : [
        {
            "mesh" : 0,
            "name" : "8_lowpoly_Cylinder.001",
            "rotation" : [
                0.7071068286895752,
                0,
                0,
                0.7071067094802856
            ]
        }
    ],
    "materials" : [
        {
            "doubleSided" : true,
            "name" : "Material.005",
            "pbrMetallicRoughness" : {
                "baseColorFactor" : [
                    0.25818300247192383,
                    0.05951099842786789,
                    0.00030399998649954796,
                    1
                ],
                "metallicFactor" : 0,
                "roughnessFactor" : 0.5
            }
        },
        {
            "doubleSided" : true,
            "name" : "Material.006",
            "pbrMetallicRoughness" : {
                "baseColorFactor" : [
                    0.46778398752212524,
                    0.7991030216217041,
                    0.3324519991874695,
                    1
                ],
                "metallicFactor" : 0,
                "roughnessFactor" : 0.5
            }
        },
        {
            "doubleSided" : true,
            "name" : "Material.007",
            "pbrMetallicRoughness" : {
                "baseColorFactor" : [
                    0.4564110040664673,
                    0.7991030216217041,
                    0.17788800597190857,
                    1
                ],
                "metallicFactor" : 0,
                "roughnessFactor" : 0.5
            }
        },
        {
            "doubleSided" : true,
            "name" : "Material.008",
            "pbrMetallicRoughness" : {
                "baseColorFactor" : [
                    0.4564110040664673,
                    0.7991030216217041,
                    0.17788800597190857,
                    1
                ],
                "metallicFactor" : 0,
                "roughnessFactor" : 0.5
            }
        }
    ],
    "meshes" : [
        {
            "name" : "8_lowpoly_Cylinder.001",
            "primitives" : [
                {
                    "attributes" : {
                        "POSITION" : 0,
                        "NORMAL" : 1,
                        "TEXCOORD_0" : 2
                    },
                    "indices" : 3,
                    "material" : 0
                },
                {
                    "attributes" : {
                        "POSITION" : 4,
                        "NORMAL" : 5,
                        "TEXCOORD_0" : 6
                    },
                    "indices" : 7,
                    "material" : 1
                },
                {
                    "attributes" : {
                        "POSITION" : 8,
                        "NORMAL" : 9,
                        "TEXCOORD_0" : 10
                    },
                    "indices" : 11,
                    "material" : 2
                },
                {
                    "attributes" : {
                        "POSITION" : 12,
                        "NORMAL" : 13,
                        "TEXCOORD_0" : 14
                    },
                    "indices" : 15,
                    "material" : 3
                }
            ]
        }
    ],
    "accessors" : [
        {
            "bufferView" : 0,
            "componentType" : 5126,
            "count" : 1041,
            "max" : [
                0.24004000425338745,
                0.23660899698734283,
                -0.07198499888181686
            ],
            "min" : [
                -0.25498101115226746,
                -0.21153299510478973,
                -1.6008189916610718
            ],
            "type" : "VEC3"
        },
        {
            "bufferView" : 1,
            "componentType" : 5126,
            "count" : 1041,
            "type" : "VEC3"
        },
        {
            "bufferView" : 2,
            "componentType" : 5126,
            "count" : 1041,
            "type" : "VEC2"
        },
        {
            "bufferView" : 3,
            "componentType" : 5123,
            "count" : 5379,
            "type" : "SCALAR"
        },
        {
            "bufferView" : 4,
            "componentType" : 5126,
            "count" : 5055,
            "max" : [
                0.9301170110702515,
                1.0505030155181885,
                -0.5787569880485535
            ],
            "min" : [
                -1.1095470190048218,
                -1.0316319465637207,
                -4.860779762268066
            ],
            "type" : "VEC3"
        },
        {
            "bufferView" : 5,
            "componentType" : 5126,
            "count" : 5055,
            "type" : "VEC3"
        },
        {
            "bufferView" : 6,
            "componentType" : 5126,
            "count" : 5055,
            "type" : "VEC2"
        },
        {
            "bufferView" : 7,
            "componentType" : 5123,
            "count" : 26220,
            "type" : "SCALAR"
        },
        {
            "bufferView" : 8,
            "componentType" : 5126,
            "count" : 629,
            "max" : [
                0.008097999729216099,
                0.9194419980049133,
                -1.1679389476776123
            ],
            "min" : [
                -1.0272419452667236,
                -0.09008999913930893,
                -2.9457900524139404
            ],
            "type" : "VEC3"
        },
        {
            "bufferView" : 9,
            "componentType" : 5126,
            "count" : 629,
            "type" : "VEC3"
        },
        {
            "bufferView" : 10,
            "componentType" : 5126,
            "count" : 629,
            "type" : "VEC2"
        },
        {
            "bufferView" : 11,
            "componentType" : 5123,
            "count" : 3348,
            "type" : "SCALAR"
        },
        {
            "bufferView" : 12,
            "componentType" : 5126,
            "count" : 4181,
            "max" : [
                0.9714339971542358,
                1.1473159790039062,
                -0.5957099795341492
            ],
            "min" : [
                -1.1765379905700684,
                -1.0803279876708984,
                -4.901688098907471
            ],
            "type" : "VEC3"
        },
        {
            "bufferView" : 13,
            "componentType" : 5126,
            "count" : 4181,
            "type" : "VEC3"
        },
        {
            "bufferView" : 14,
            "componentType" : 5126,
            "count" : 4181,
            "type" : "VEC2"
        },
        {
            "bufferView" : 15,
            "componentType" : 5123,
            "count" : 22680,
            "type" : "SCALAR"
        }
    ],
    "bufferViews" : [
        {
            "buffer" : 0,
            "byteLength" : 12492,
            "byteOffset" : 0
        },
        {
            "buffer" : 0,
            "byteLength" : 12492,
            "byteOffset" : 12492
        },
        {
            "buffer" : 0,
            "byteLength" : 8328,
            "byteOffset" : 24984
        },
        {
            "buffer" : 0,
            "byteLength" : 10758,
            "byteOffset" : 33312
        },
        {
            "buffer" : 0,
            "byteLength" : 60660,
            "byteOffset" : 44072
        },
        {
            "buffer" : 0,
            "byteLength" : 60660,
            "byteOffset" : 104732
        },
        {
            "buffer" : 0,
            "byteLength" : 40440,
            "byteOffset" : 165392
        },
        {
            "buffer" : 0,
            "byteLength" : 52440,
            "byteOffset" : 205832
        },
        {
            "buffer" : 0,
            "byteLength" : 7548,
            "byteOffset" : 258272
        },
        {
            "buffer" : 0,
            "byteLength" : 7548,
            "byteOffset" : 265820
        },
        {
            "buffer" : 0,
            "byteLength" : 5032,
            "byteOffset" : 273368
        },
        {
            "buffer" : 0,
            "byteLength" : 6696,
            "byteOffset" : 278400
        },
        {
            "buffer" : 0,
            "byteLength" : 50172,
            "byteOffset" : 285096
        },
        {
            "buffer" : 0,
            "byteLength" : 50172,
            "byteOffset" : 335268
        },
        {
            "buffer" : 0,
            "byteLength" : 33448,
            "byteOffset" : 385440
        },
        {
            "buffer" : 0,
            "byteLength" : 45360,
            "byteOffset" : 418888
        }
    ],
    "buffers" : [
        {
            "byteLength" : 464248,
            "uri" : "data:application/octet-stream;base64,"
        }
    ]
}
