{
    "asset" : {
        "generator" : "Khronos glTF Blender I/O v1.6.16",
        "version" : "2.0"
    },
    "scene" : 0,
    "scenes" : [
        {
            "name" : "Scene",
            "nodes" : [
                0
            ]
        }
    ],
    "nodes" : [
        {
            "mesh" : 0,
            "name" : "Fox_by_vladhad22@gmail.com",
            "rotation" : [
                0.030553992837667465,
                -0.05120381712913513,
                0.011214468628168106,
                0.9981577396392822
            ],
            "translation" : [
                0,
                1.2999999523162842,
                0
            ]
        }
    ],
    "materials" : [
        {
            "doubleSided" : true,
            "name" : "Material.001",
            "pbrMetallicRoughness" : {
                "baseColorTexture" : {
                    "index" : 0
                },
                "metallicFactor" : 0,
                "roughnessFactor" : 0.5
            }
        }
    ],
    "meshes" : [
        {
            "name" : "Cube.001",
            "primitives" : [
                {
                    "attributes" : {
                        "POSITION" : 0,
                        "NORMAL" : 1,
                        "TEXCOORD_0" : 2
                    },
                    "indices" : 3,
                    "material" : 0
                }
            ]
        }
    ],
    "textures" : [
        {
            "sampler" : 0,
            "source" : 0
        }
    ],
    "images" : [
        {
            "bufferView" : 4,
            "mimeType" : "image/png",
            "name" : "FoxColors"
        }
    ],
    "accessors" : [
        {
            "bufferView" : 0,
            "componentType" : 5126,
            "count" : 1593,
            "max" : [
                0.5973817706108093,
                1.1825017929077148,
                2.183100938796997
            ],
            "min" : [
                -0.5452020168304443,
                -1.348118543624878,
                -3.2539262771606445
            ],
            "type" : "VEC3"
        },
        {
            "bufferView" : 1,
            "componentType" : 5126,
            "count" : 1593,
            "type" : "VEC3"
        },
        {
            "bufferView" : 2,
            "componentType" : 5126,
            "count" : 1593,
            "type" : "VEC2"
        },
        {
            "bufferView" : 3,
            "componentType" : 5123,
            "count" : 2346,
            "type" : "SCALAR"
        }
    ],
    "bufferViews" : [
        {
            "buffer" : 0,
            "byteLength" : 19116,
            "byteOffset" : 0
        },
        {
            "buffer" : 0,
            "byteLength" : 19116,
            "byteOffset" : 19116
        },
        {
            "buffer" : 0,
            "byteLength" : 12744,
            "byteOffset" : 38232
        },
        {
            "buffer" : 0,
            "byteLength" : 4692,
            "byteOffset" : 50976
        },
        {
            "buffer" : 0,
            "byteLength" : 123,
            "byteOffset" : 55668
        }
    ],
    "samplers" : [
        {
            "magFilter" : 9729,
            "minFilter" : 9987
        }
    ],
    "buffers" : [
        {
            "byteLength" : 55792,
            "uri" : "data:application/octet-stream;base64,"
        }
    ]
}
